<?xml version="1.0" standalone="no"?>
<!DOCTYPE svg PUBLIC "-//W3C//DTD SVG 20010904//EN"
 "http://www.w3.org/TR/2001/REC-SVG-20010904/DTD/svg10.dtd">
<svg version="1.0" xmlns="http://www.w3.org/2000/svg"
 width="150.000000pt" height="150.000000pt" viewBox="0 0 150.000000 150.000000"
 preserveAspectRatio="xMidYMid meet">

<g transform="translate(0.000000,150.000000) scale(0.100000,-0.100000)"
fill="#000000" stroke="none">
<path d="M575 989 c-4 -6 -5 -12 -2 -15 2 -3 7 2 10 11 7 17 1 20 -8 4z"/>
<path d="M601 990 c-1 -18 16 -46 23 -40 2 3 -2 16 -9 30 -8 15 -14 19 -14 10z"/>
<path d="M643 898 c13 -24 34 -62 47 -85 13 -24 27 -43 32 -43 5 0 -2 17 -15
38 -12 20 -34 58 -47 85 -14 26 -29 47 -33 47 -5 0 2 -19 16 -42z"/>
<path d="M848 803 c6 -2 18 -2 25 0 6 3 1 5 -13 5 -14 0 -19 -2 -12 -5z"/>
<path d="M945 770 c10 -11 23 -20 28 -20 6 0 0 9 -13 20 -13 11 -25 20 -28 20
-3 0 3 -9 13 -20z"/>
<path d="M743 763 c-7 -2 -13 -10 -13 -18 0 -7 -7 -18 -15 -25 -21 -18 -30
-97 -15 -139 14 -39 44 -77 75 -93 11 -6 5 3 -12 19 -18 17 -37 43 -43 57 -13
34 -13 97 0 130 10 28 30 35 30 11 0 -8 4 -15 9 -15 5 0 12 -8 14 -17 4 -17 5
-17 6 0 0 10 -6 26 -15 34 -9 9 -14 26 -11 40 2 12 4 23 3 22 0 0 -7 -3 -13
-6z"/>
<path d="M170 749 c0 -5 5 -7 10 -4 6 3 10 8 10 11 0 2 -4 4 -10 4 -5 0 -10
-5 -10 -11z"/>
<path d="M838 463 c12 -2 30 -2 40 0 9 3 -1 5 -23 4 -22 0 -30 -2 -17 -4z"/>
</g>
</svg>
